<mxfile host="app.diagrams.net" agent="Mozilla/5.0 (X11; Linux x86_64; rv:133.0) Gecko/20100101 Firefox/133.0" version="28.1.0">
  <diagram id="4R1l7TuO14RYq0gZdg3w" name="Page-1">
    <mxGraphModel dx="1426" dy="795" grid="1" gridSize="10" guides="1" tooltips="1" connect="1" arrows="1" fold="1" page="1" pageScale="1" pageWidth="1100" pageHeight="850" math="0" shadow="0">
      <root>
        <mxCell id="0" />
        <mxCell id="1" parent="0" />
        <mxCell id="7x5JWIc4PQuYRjXECZIm-1" value="WAN" style="shape=mxgraph.cisco.storage.cloud;html=1;dashed=0;strokeColor=#23445D;fillColor=#ffffff;strokeWidth=2;fontFamily=Helvetica;fontSize=24;fontColor=#23445D;align=center;fontStyle=1" vertex="1" parent="1">
          <mxGeometry x="450" y="90" width="150" height="70" as="geometry" />
        </mxCell>
        <mxCell id="7x5JWIc4PQuYRjXECZIm-2" value="" style="shape=mxgraph.cisco.routers.router;html=1;dashed=0;fillColor=#10739E;strokeColor=#ffffff;strokeWidth=2;verticalLabelPosition=bottom;verticalAlign=top;fontFamily=Helvetica;fontSize=36;fontColor=#FFB366" vertex="1" parent="1">
          <mxGeometry x="580" y="196.5" width="25" height="20" as="geometry" />
        </mxCell>
        <mxCell id="7x5JWIc4PQuYRjXECZIm-3" value="router" style="fontColor=#0066CC;verticalAlign=top;verticalLabelPosition=bottom;labelPosition=center;align=center;html=1;fillColor=#CCCCCC;strokeColor=#6881B3;gradientColor=none;gradientDirection=north;strokeWidth=2;shape=mxgraph.networks.router;rounded=1;shadow=0;comic=0;labelBackgroundColor=#ffffff;" vertex="1" parent="1">
          <mxGeometry x="475" y="191.5" width="100" height="30" as="geometry" />
        </mxCell>
        <mxCell id="7x5JWIc4PQuYRjXECZIm-6" style="edgeStyle=orthogonalEdgeStyle;rounded=0;orthogonalLoop=1;jettySize=auto;html=1;exitX=0.5;exitY=0.99;exitDx=0;exitDy=0;exitPerimeter=0;entryX=0.5;entryY=0;entryDx=0;entryDy=0;entryPerimeter=0;" edge="1" parent="1" source="7x5JWIc4PQuYRjXECZIm-1" target="7x5JWIc4PQuYRjXECZIm-3">
          <mxGeometry relative="1" as="geometry" />
        </mxCell>
        <mxCell id="7x5JWIc4PQuYRjXECZIm-11" style="edgeStyle=orthogonalEdgeStyle;rounded=0;orthogonalLoop=1;jettySize=auto;html=1;exitX=0;exitY=0.5;exitDx=0;exitDy=0;exitPerimeter=0;entryX=1;entryY=0.5;entryDx=0;entryDy=0;" edge="1" parent="1" source="7x5JWIc4PQuYRjXECZIm-8" target="7x5JWIc4PQuYRjXECZIm-10">
          <mxGeometry relative="1" as="geometry">
            <mxPoint x="250" y="285" as="targetPoint" />
          </mxGeometry>
        </mxCell>
        <mxCell id="7x5JWIc4PQuYRjXECZIm-8" value="switch" style="fontColor=#0066CC;verticalAlign=top;verticalLabelPosition=bottom;labelPosition=center;align=center;html=1;fillColor=#CCCCCC;strokeColor=#6881B3;gradientColor=none;gradientDirection=north;strokeWidth=2;shape=mxgraph.networks.switch;rounded=1;shadow=0;comic=0;labelBackgroundColor=#ffffff;" vertex="1" parent="1">
          <mxGeometry x="330" y="191.5" width="80" height="30" as="geometry" />
        </mxCell>
        <mxCell id="7x5JWIc4PQuYRjXECZIm-10" value="Lab" style="swimlane;whiteSpace=wrap;html=1;" vertex="1" parent="1">
          <mxGeometry x="20" y="26.5" width="200" height="360" as="geometry" />
        </mxCell>
        <mxCell id="7x5JWIc4PQuYRjXECZIm-13" style="edgeStyle=orthogonalEdgeStyle;rounded=0;orthogonalLoop=1;jettySize=auto;html=1;exitX=0;exitY=0.5;exitDx=0;exitDy=0;exitPerimeter=0;entryX=1;entryY=0.5;entryDx=0;entryDy=0;entryPerimeter=0;" edge="1" parent="1" source="7x5JWIc4PQuYRjXECZIm-3" target="7x5JWIc4PQuYRjXECZIm-8">
          <mxGeometry relative="1" as="geometry" />
        </mxCell>
      </root>
    </mxGraphModel>
  </diagram>
</mxfile>
